<mxfile host="app.diagrams.net" modified="2020-07-24T20:12:47.813Z" agent="5.0 (Windows NT 10.0; Win64; x64) AppleWebKit/537.36 (KHTML, like Gecko) Chrome/84.0.4147.89 Safari/537.36" etag="msrG2x0AXyqbRp4lSyPc" version="13.5.3" type="github">
  <diagram id="C5RBs43oDa-KdzZeNtuy" name="Page-1">
    <mxGraphModel dx="868" dy="450" grid="1" gridSize="10" guides="1" tooltips="1" connect="1" arrows="1" fold="1" page="1" pageScale="1" pageWidth="827" pageHeight="1169" math="0" shadow="0">
      <root>
        <mxCell id="WIyWlLk6GJQsqaUBKTNV-0" />
        <mxCell id="WIyWlLk6GJQsqaUBKTNV-1" parent="WIyWlLk6GJQsqaUBKTNV-0" />
        <mxCell id="6lG_LMzA8kCoMvOKwmpQ-18" style="edgeStyle=orthogonalEdgeStyle;rounded=0;orthogonalLoop=1;jettySize=auto;html=1;" edge="1" parent="WIyWlLk6GJQsqaUBKTNV-1" source="6lG_LMzA8kCoMvOKwmpQ-0" target="6lG_LMzA8kCoMvOKwmpQ-1">
          <mxGeometry relative="1" as="geometry" />
        </mxCell>
        <mxCell id="6lG_LMzA8kCoMvOKwmpQ-0" value="Index.html&lt;br&gt;&amp;nbsp;Onde terá o botão INICIAR" style="rounded=1;whiteSpace=wrap;html=1;" vertex="1" parent="WIyWlLk6GJQsqaUBKTNV-1">
          <mxGeometry x="190" y="10" width="120" height="60" as="geometry" />
        </mxCell>
        <mxCell id="6lG_LMzA8kCoMvOKwmpQ-29" style="edgeStyle=orthogonalEdgeStyle;rounded=0;orthogonalLoop=1;jettySize=auto;html=1;endArrow=classic;endFill=1;" edge="1" parent="WIyWlLk6GJQsqaUBKTNV-1" source="6lG_LMzA8kCoMvOKwmpQ-1" target="6lG_LMzA8kCoMvOKwmpQ-26">
          <mxGeometry relative="1" as="geometry" />
        </mxCell>
        <mxCell id="6lG_LMzA8kCoMvOKwmpQ-1" value="formulario.php&lt;br&gt;Cria um formulário em HTML através do PHP" style="rounded=1;whiteSpace=wrap;html=1;" vertex="1" parent="WIyWlLk6GJQsqaUBKTNV-1">
          <mxGeometry x="360" y="10" width="120" height="60" as="geometry" />
        </mxCell>
        <mxCell id="6lG_LMzA8kCoMvOKwmpQ-34" style="edgeStyle=orthogonalEdgeStyle;rounded=0;orthogonalLoop=1;jettySize=auto;html=1;entryX=0;entryY=0.85;entryDx=0;entryDy=0;entryPerimeter=0;endArrow=classic;endFill=1;startArrow=block;startFill=1;" edge="1" parent="WIyWlLk6GJQsqaUBKTNV-1" source="6lG_LMzA8kCoMvOKwmpQ-3" target="6lG_LMzA8kCoMvOKwmpQ-24">
          <mxGeometry relative="1" as="geometry" />
        </mxCell>
        <mxCell id="6lG_LMzA8kCoMvOKwmpQ-3" value="Conexao.php&lt;br&gt;&amp;nbsp;Realiza a conexão com o BD&amp;nbsp;" style="rounded=1;whiteSpace=wrap;html=1;" vertex="1" parent="WIyWlLk6GJQsqaUBKTNV-1">
          <mxGeometry x="570" y="260" width="120" height="60" as="geometry" />
        </mxCell>
        <mxCell id="6lG_LMzA8kCoMvOKwmpQ-17" style="edgeStyle=orthogonalEdgeStyle;rounded=0;orthogonalLoop=1;jettySize=auto;html=1;" edge="1" parent="WIyWlLk6GJQsqaUBKTNV-1" source="6lG_LMzA8kCoMvOKwmpQ-4" target="6lG_LMzA8kCoMvOKwmpQ-0">
          <mxGeometry relative="1" as="geometry" />
        </mxCell>
        <mxCell id="6lG_LMzA8kCoMvOKwmpQ-4" value="style.css&lt;br&gt;&amp;nbsp;Estilo da página HTML" style="rounded=1;whiteSpace=wrap;html=1;" vertex="1" parent="WIyWlLk6GJQsqaUBKTNV-1">
          <mxGeometry x="20" y="10" width="110" height="60" as="geometry" />
        </mxCell>
        <mxCell id="6lG_LMzA8kCoMvOKwmpQ-31" style="edgeStyle=orthogonalEdgeStyle;rounded=0;orthogonalLoop=1;jettySize=auto;html=1;entryX=0;entryY=0.5;entryDx=0;entryDy=0;endArrow=classic;endFill=1;strokeColor=#1A1A1A;startArrow=block;startFill=1;" edge="1" parent="WIyWlLk6GJQsqaUBKTNV-1" source="6lG_LMzA8kCoMvOKwmpQ-14" target="6lG_LMzA8kCoMvOKwmpQ-3">
          <mxGeometry relative="1" as="geometry" />
        </mxCell>
        <mxCell id="6lG_LMzA8kCoMvOKwmpQ-14" value="processo.php&lt;br&gt;Processa as informações obtidas do BD" style="rounded=1;whiteSpace=wrap;html=1;" vertex="1" parent="WIyWlLk6GJQsqaUBKTNV-1">
          <mxGeometry x="290" y="260" width="120" height="60" as="geometry" />
        </mxCell>
        <mxCell id="6lG_LMzA8kCoMvOKwmpQ-24" value="Data Base" style="strokeWidth=2;html=1;shape=mxgraph.flowchart.database;whiteSpace=wrap;" vertex="1" parent="WIyWlLk6GJQsqaUBKTNV-1">
          <mxGeometry x="780" y="360" width="60" height="60" as="geometry" />
        </mxCell>
        <mxCell id="6lG_LMzA8kCoMvOKwmpQ-30" style="edgeStyle=orthogonalEdgeStyle;rounded=0;orthogonalLoop=1;jettySize=auto;html=1;endArrow=classic;endFill=1;" edge="1" parent="WIyWlLk6GJQsqaUBKTNV-1" source="6lG_LMzA8kCoMvOKwmpQ-26" target="6lG_LMzA8kCoMvOKwmpQ-14">
          <mxGeometry relative="1" as="geometry" />
        </mxCell>
        <mxCell id="6lG_LMzA8kCoMvOKwmpQ-26" value="" style="strokeWidth=2;html=1;shape=mxgraph.flowchart.decision;whiteSpace=wrap;" vertex="1" parent="WIyWlLk6GJQsqaUBKTNV-1">
          <mxGeometry x="320" y="150" width="60" height="60" as="geometry" />
        </mxCell>
      </root>
    </mxGraphModel>
  </diagram>
</mxfile>
